<?xml version="1.0" encoding="UTF-8" standalone="no"?>
<!DOCTYPE svg PUBLIC "-//W3C//DTD SVG 1.1//EN"
 "http://www.w3.org/Graphics/SVG/1.1/DTD/svg11.dtd">
<!-- Generated by graphviz version 8.1.0 (0)
 -->
<!-- Title: test Pages: 1 -->
<svg width="566pt" height="404pt"
 viewBox="0.00 0.00 566.00 404.00" xmlns="http://www.w3.org/2000/svg" xmlns:xlink="http://www.w3.org/1999/xlink">
<g id="graph0" class="graph" transform="scale(1 1) rotate(0) translate(4 400)">
<title>test</title>
<polygon fill="white" stroke="none" points="-4,4 -4,-400 562,-400 562,4 -4,4"/>
<!-- _1a289f537a -->
<g id="node1" class="node">
<title>_1a289f537a</title>
<polygon fill="none" stroke="black" points="427,-396 424,-400 403,-400 400,-396 373,-396 373,-360 427,-360 427,-396"/>
<text text-anchor="middle" x="400" y="-372.95" font-family="Times,serif" font-size="14.00">test.py</text>
</g>
<!-- _aa2287771d -->
<g id="node2" class="node">
<title>_aa2287771d</title>
<polygon fill="none" stroke="black" points="439.88,-324 360.12,-324 360.12,-320 356.12,-320 356.12,-316 360.12,-316 360.12,-296 356.12,-296 356.12,-292 360.12,-292 360.12,-288 439.88,-288 439.88,-324"/>
<polyline fill="none" stroke="black" points="360.12,-320 364.12,-320 364.12,-316 360.12,-316"/>
<polyline fill="none" stroke="black" points="360.12,-296 364.12,-296 364.12,-292 360.12,-292"/>
<text text-anchor="middle" x="400" y="-300.95" font-family="Times,serif" font-size="14.00">HelloWorld</text>
</g>
<!-- _1a289f537a&#45;&gt;_aa2287771d -->
<g id="edge1" class="edge">
<title>_1a289f537a&#45;&gt;_aa2287771d</title>
<path fill="none" stroke="black" d="M400,-359.7C400,-352.24 400,-343.32 400,-334.97"/>
<polygon fill="black" stroke="black" points="403.5,-335.1 400,-325.1 396.5,-335.1 403.5,-335.1"/>
</g>
<!-- _bea8e8549f -->
<g id="node3" class="node">
<title>_bea8e8549f</title>
<polygon fill="none" stroke="black" points="319.07,-234 295.03,-252 246.97,-252 222.93,-234 246.97,-216 295.03,-216 319.07,-234"/>
<text text-anchor="middle" x="271" y="-228.95" font-family="Times,serif" font-size="14.00">__init__</text>
</g>
<!-- _aa2287771d&#45;&gt;_bea8e8549f -->
<g id="edge2" class="edge">
<title>_aa2287771d&#45;&gt;_bea8e8549f</title>
<path fill="none" stroke="black" d="M367.78,-287.52C349.61,-277.65 326.82,-265.29 307.93,-255.04"/>
<polygon fill="black" stroke="black" points="309.91,-251.59 299.45,-249.89 306.57,-257.74 309.91,-251.59"/>
</g>
<!-- _73ac7146d1 -->
<g id="node19" class="node">
<title>_73ac7146d1</title>
<polygon fill="none" stroke="black" points="391,-234 377.5,-252 350.5,-252 337,-234 350.5,-216 377.5,-216 391,-234"/>
<text text-anchor="middle" x="364" y="-228.95" font-family="Times,serif" font-size="14.00">a</text>
</g>
<!-- _aa2287771d&#45;&gt;_73ac7146d1 -->
<g id="edge18" class="edge">
<title>_aa2287771d&#45;&gt;_73ac7146d1</title>
<path fill="none" stroke="black" d="M391.1,-287.7C387.09,-279.9 382.26,-270.51 377.8,-261.83"/>
<polygon fill="black" stroke="black" points="380.48,-260.4 372.8,-253.1 374.26,-263.6 380.48,-260.4"/>
</g>
<!-- _97d0b0a284 -->
<g id="node20" class="node">
<title>_97d0b0a284</title>
<polygon fill="none" stroke="black" points="464.97,-234 450.99,-252 423.01,-252 409.03,-234 423.01,-216 450.99,-216 464.97,-234"/>
<text text-anchor="middle" x="437" y="-228.95" font-family="Times,serif" font-size="14.00">oke</text>
</g>
<!-- _aa2287771d&#45;&gt;_97d0b0a284 -->
<g id="edge19" class="edge">
<title>_aa2287771d&#45;&gt;_97d0b0a284</title>
<path fill="none" stroke="black" d="M409.15,-287.7C413.27,-279.9 418.23,-270.51 422.82,-261.83"/>
<polygon fill="black" stroke="black" points="426.38,-263.58 427.96,-253.1 420.19,-260.31 426.38,-263.58"/>
</g>
<!-- _4c25d7c661 -->
<g id="node21" class="node">
<title>_4c25d7c661</title>
<polygon fill="none" stroke="black" points="543.34,-234 528.17,-252 497.83,-252 482.66,-234 497.83,-216 528.17,-216 543.34,-234"/>
<text text-anchor="middle" x="513" y="-228.95" font-family="Times,serif" font-size="14.00">for_</text>
</g>
<!-- _aa2287771d&#45;&gt;_4c25d7c661 -->
<g id="edge20" class="edge">
<title>_aa2287771d&#45;&gt;_4c25d7c661</title>
<path fill="none" stroke="black" d="M428.22,-287.52C445.32,-276.92 467.08,-263.45 484.27,-252.8"/>
<polygon fill="black" stroke="black" points="485.63,-255.45 492.29,-247.21 481.94,-249.5 485.63,-255.45"/>
</g>
<!-- _84a072d270 -->
<g id="node4" class="node">
<title>_84a072d270</title>
<polygon fill="none" stroke="black" points="242,-174 200,-174 200,-150 242,-150 254,-162 242,-174"/>
<text text-anchor="middle" x="227" y="-156.95" font-family="Times,serif" font-size="14.00">self</text>
</g>
<!-- _bea8e8549f&#45;&gt;_84a072d270 -->
<g id="edge3" class="edge">
<title>_bea8e8549f&#45;&gt;_84a072d270</title>
<path fill="none" stroke="black" d="M260.12,-215.7C255.11,-207.73 249.06,-198.1 243.51,-189.26"/>
<polygon fill="black" stroke="black" points="246.04,-187.71 237.75,-181.1 240.11,-191.43 246.04,-187.71"/>
</g>
<!-- _cf2aad77f8 -->
<g id="node5" class="node">
<title>_cf2aad77f8</title>
<polygon fill="none" stroke="black" points="358.25,-180 271.75,-180 271.75,-176 267.75,-176 267.75,-172 271.75,-172 271.75,-152 267.75,-152 267.75,-148 271.75,-148 271.75,-144 358.25,-144 358.25,-180"/>
<polyline fill="none" stroke="black" points="271.75,-176 275.75,-176 275.75,-172 271.75,-172"/>
<polyline fill="none" stroke="black" points="271.75,-152 275.75,-152 275.75,-148 271.75,-148"/>
<text text-anchor="middle" x="315" y="-156.95" font-family="Times,serif" font-size="14.00">HelloWorld2</text>
</g>
<!-- _bea8e8549f&#45;&gt;_cf2aad77f8 -->
<g id="edge4" class="edge">
<title>_bea8e8549f&#45;&gt;_cf2aad77f8</title>
<path fill="none" stroke="black" d="M281.88,-215.7C286.89,-207.73 292.94,-198.1 298.49,-189.26"/>
<polygon fill="black" stroke="black" points="301.89,-191.43 304.25,-181.1 295.96,-187.71 301.89,-191.43"/>
</g>
<!-- _a7c11afa9e -->
<g id="node6" class="node">
<title>_a7c11afa9e</title>
<polygon fill="none" stroke="black" points="147.07,-90 123.03,-108 74.97,-108 50.93,-90 74.97,-72 123.03,-72 147.07,-90"/>
<text text-anchor="middle" x="99" y="-84.95" font-family="Times,serif" font-size="14.00">__init__</text>
</g>
<!-- _cf2aad77f8&#45;&gt;_a7c11afa9e -->
<g id="edge5" class="edge">
<title>_cf2aad77f8&#45;&gt;_a7c11afa9e</title>
<path fill="none" stroke="black" d="M271.31,-146.71C268.5,-145.79 265.71,-144.88 263,-144 222.04,-130.69 175.3,-115.59 142.23,-104.93"/>
<polygon fill="black" stroke="black" points="143.58,-101.36 132.99,-101.63 141.44,-108.03 143.58,-101.36"/>
</g>
<!-- _63b60eee43 -->
<g id="node9" class="node">
<title>_63b60eee43</title>
<polygon fill="none" stroke="black" points="269,-90 255.5,-108 228.5,-108 215,-90 228.5,-72 255.5,-72 269,-90"/>
<text text-anchor="middle" x="242" y="-84.95" font-family="Times,serif" font-size="14.00">a</text>
</g>
<!-- _cf2aad77f8&#45;&gt;_63b60eee43 -->
<g id="edge8" class="edge">
<title>_cf2aad77f8&#45;&gt;_63b60eee43</title>
<path fill="none" stroke="black" d="M296.96,-143.7C287.36,-134.5 275.46,-123.08 265.18,-113.23"/>
<polygon fill="black" stroke="black" points="268.01,-111.13 258.37,-106.74 263.17,-116.19 268.01,-111.13"/>
</g>
<!-- _4b6aa3ee7d -->
<g id="node10" class="node">
<title>_4b6aa3ee7d</title>
<polygon fill="none" stroke="black" points="342.97,-90 328.99,-108 301.01,-108 287.03,-90 301.01,-72 328.99,-72 342.97,-90"/>
<text text-anchor="middle" x="315" y="-84.95" font-family="Times,serif" font-size="14.00">xyz</text>
</g>
<!-- _cf2aad77f8&#45;&gt;_4b6aa3ee7d -->
<g id="edge9" class="edge">
<title>_cf2aad77f8&#45;&gt;_4b6aa3ee7d</title>
<path fill="none" stroke="black" d="M315,-143.7C315,-136.24 315,-127.32 315,-118.97"/>
<polygon fill="black" stroke="black" points="318.5,-119.1 315,-109.1 311.5,-119.1 318.5,-119.1"/>
</g>
<!-- _5cb5efb56a -->
<g id="node17" class="node">
<title>_5cb5efb56a</title>
<polygon fill="none" stroke="black" points="415,-90 401.5,-108 374.5,-108 361,-90 374.5,-72 401.5,-72 415,-90"/>
<text text-anchor="middle" x="388" y="-84.95" font-family="Times,serif" font-size="14.00">j</text>
</g>
<!-- _cf2aad77f8&#45;&gt;_5cb5efb56a -->
<g id="edge16" class="edge">
<title>_cf2aad77f8&#45;&gt;_5cb5efb56a</title>
<path fill="none" stroke="black" d="M333.04,-143.7C342.64,-134.5 354.54,-123.08 364.82,-113.23"/>
<polygon fill="black" stroke="black" points="366.83,-116.19 371.63,-106.74 361.99,-111.13 366.83,-116.19"/>
</g>
<!-- _dc2aa657bd -->
<g id="node18" class="node">
<title>_dc2aa657bd</title>
<polygon fill="none" stroke="black" points="492.75,-90 477.87,-108 448.13,-108 433.25,-90 448.13,-72 477.87,-72 492.75,-90"/>
<text text-anchor="middle" x="463" y="-84.95" font-family="Times,serif" font-size="14.00">tesx</text>
</g>
<!-- _cf2aad77f8&#45;&gt;_dc2aa657bd -->
<g id="edge17" class="edge">
<title>_cf2aad77f8&#45;&gt;_dc2aa657bd</title>
<path fill="none" stroke="black" d="M351.96,-143.52C376.73,-131.81 408.94,-116.57 432.29,-105.53"/>
<polygon fill="black" stroke="black" points="433.48,-108.36 441.02,-100.92 430.48,-102.04 433.48,-108.36"/>
</g>
<!-- _8b4144edaa -->
<g id="node7" class="node">
<title>_8b4144edaa</title>
<polygon fill="none" stroke="black" points="42,-30 0,-30 0,-6 42,-6 54,-18 42,-30"/>
<text text-anchor="middle" x="27" y="-12.95" font-family="Times,serif" font-size="14.00">selx</text>
</g>
<!-- _a7c11afa9e&#45;&gt;_8b4144edaa -->
<g id="edge6" class="edge">
<title>_a7c11afa9e&#45;&gt;_8b4144edaa</title>
<path fill="none" stroke="black" d="M81.2,-71.7C72.55,-63.28 61.99,-53.02 52.5,-43.79"/>
<polygon fill="black" stroke="black" points="55.45,-41.81 45.84,-37.35 50.57,-46.83 55.45,-41.81"/>
</g>
<!-- _2f9c01c038 -->
<g id="node8" class="node">
<title>_2f9c01c038</title>
<polygon fill="none" stroke="black" points="126,-18 112.5,-36 85.5,-36 72,-18 85.5,0 112.5,0 126,-18"/>
<text text-anchor="middle" x="99" y="-12.95" font-family="Times,serif" font-size="14.00">i</text>
</g>
<!-- _a7c11afa9e&#45;&gt;_2f9c01c038 -->
<g id="edge7" class="edge">
<title>_a7c11afa9e&#45;&gt;_2f9c01c038</title>
<path fill="none" stroke="black" d="M99,-71.7C99,-64.24 99,-55.32 99,-46.97"/>
<polygon fill="black" stroke="black" points="102.5,-47.1 99,-37.1 95.5,-47.1 102.5,-47.1"/>
</g>
<!-- _0ee9061b7c -->
<g id="node11" class="node">
<title>_0ee9061b7c</title>
<polygon fill="none" stroke="black" points="186,-30 144,-30 144,-6 186,-6 198,-18 186,-30"/>
<text text-anchor="middle" x="171" y="-12.95" font-family="Times,serif" font-size="14.00">self</text>
</g>
<!-- _4b6aa3ee7d&#45;&gt;_0ee9061b7c -->
<g id="edge10" class="edge">
<title>_4b6aa3ee7d&#45;&gt;_0ee9061b7c</title>
<path fill="none" stroke="black" d="M294.98,-79.27C272.61,-68.39 235.91,-50.55 208.23,-37.1"/>
<polygon fill="black" stroke="black" points="210.01,-33.58 199.48,-32.36 206.95,-39.88 210.01,-33.58"/>
</g>
<!-- _fc39f819b6 -->
<g id="node12" class="node">
<title>_fc39f819b6</title>
<polygon fill="none" stroke="black" points="270,-18 256.5,-36 229.5,-36 216,-18 229.5,0 256.5,0 270,-18"/>
<text text-anchor="middle" x="243" y="-12.95" font-family="Times,serif" font-size="14.00">a</text>
</g>
<!-- _4b6aa3ee7d&#45;&gt;_fc39f819b6 -->
<g id="edge11" class="edge">
<title>_4b6aa3ee7d&#45;&gt;_fc39f819b6</title>
<path fill="none" stroke="black" d="M299.38,-73.81C289.53,-64.23 276.64,-51.7 265.67,-41.04"/>
<polygon fill="black" stroke="black" points="268.71,-39.14 259.1,-34.68 263.83,-44.16 268.71,-39.14"/>
</g>
<!-- _c28b976015 -->
<g id="node13" class="node">
<title>_c28b976015</title>
<polygon fill="none" stroke="black" points="342,-18 328.5,-36 301.5,-36 288,-18 301.5,0 328.5,0 342,-18"/>
<text text-anchor="middle" x="315" y="-12.95" font-family="Times,serif" font-size="14.00">x</text>
</g>
<!-- _4b6aa3ee7d&#45;&gt;_c28b976015 -->
<g id="edge12" class="edge">
<title>_4b6aa3ee7d&#45;&gt;_c28b976015</title>
<path fill="none" stroke="black" d="M315,-71.7C315,-64.24 315,-55.32 315,-46.97"/>
<polygon fill="black" stroke="black" points="318.5,-47.1 315,-37.1 311.5,-47.1 318.5,-47.1"/>
</g>
<!-- _82b2514daa -->
<g id="node14" class="node">
<title>_82b2514daa</title>
<polygon fill="none" stroke="black" points="414,-18 400.5,-36 373.5,-36 360,-18 373.5,0 400.5,0 414,-18"/>
<text text-anchor="middle" x="387" y="-12.95" font-family="Times,serif" font-size="14.00">i</text>
</g>
<!-- _4b6aa3ee7d&#45;&gt;_82b2514daa -->
<g id="edge13" class="edge">
<title>_4b6aa3ee7d&#45;&gt;_82b2514daa</title>
<path fill="none" stroke="black" d="M330.62,-73.81C340.47,-64.23 353.36,-51.7 364.33,-41.04"/>
<polygon fill="black" stroke="black" points="366.17,-44.16 370.9,-34.68 361.29,-39.14 366.17,-44.16"/>
</g>
<!-- _4a55004d48 -->
<g id="node15" class="node">
<title>_4a55004d48</title>
<polygon fill="none" stroke="black" points="486,-18 472.5,-36 445.5,-36 432,-18 445.5,0 472.5,0 486,-18"/>
<text text-anchor="middle" x="459" y="-12.95" font-family="Times,serif" font-size="14.00">f</text>
</g>
<!-- _4b6aa3ee7d&#45;&gt;_4a55004d48 -->
<g id="edge14" class="edge">
<title>_4b6aa3ee7d&#45;&gt;_4a55004d48</title>
<path fill="none" stroke="black" d="M335.02,-79.27C359.66,-67.29 401.69,-46.86 429.9,-33.15"/>
<polygon fill="black" stroke="black" points="431.14,-35.95 438.61,-28.43 428.08,-29.65 431.14,-35.95"/>
</g>
<!-- _ead3467b74 -->
<g id="node16" class="node">
<title>_ead3467b74</title>
<polygon fill="none" stroke="black" points="558,-18 544.5,-36 517.5,-36 504,-18 517.5,0 544.5,0 558,-18"/>
<text text-anchor="middle" x="531" y="-12.95" font-family="Times,serif" font-size="14.00">ho</text>
</g>
<!-- _4b6aa3ee7d&#45;&gt;_ead3467b74 -->
<g id="edge15" class="edge">
<title>_4b6aa3ee7d&#45;&gt;_ead3467b74</title>
<path fill="none" stroke="black" d="M334.69,-79.14C340.21,-76.6 346.27,-74.02 352,-72 413.82,-50.23 433.3,-58.1 495,-36 497.27,-35.19 499.6,-34.28 501.91,-33.32"/>
<polygon fill="black" stroke="black" points="503.15,-36.15 510.86,-28.88 500.3,-29.76 503.15,-36.15"/>
</g>
</g>
</svg>
